G04 #@! TF.GenerationSoftware,KiCad,Pcbnew,(5.1.4-0-10_14)*
G04 #@! TF.CreationDate,2019-11-07T09:29:39+01:00*
G04 #@! TF.ProjectId,luminixie,6c756d69-6e69-4786-9965-2e6b69636164,rev?*
G04 #@! TF.SameCoordinates,Original*
G04 #@! TF.FileFunction,Copper,L2,Bot*
G04 #@! TF.FilePolarity,Positive*
%FSLAX46Y46*%
G04 Gerber Fmt 4.6, Leading zero omitted, Abs format (unit mm)*
G04 Created by KiCad (PCBNEW (5.1.4-0-10_14)) date 2019-11-07 09:29:39*
%MOMM*%
%LPD*%
G04 APERTURE LIST*
%ADD10C,1.600000*%
%ADD11O,1.600000X1.600000*%
%ADD12O,1.700000X1.700000*%
%ADD13R,1.700000X1.700000*%
%ADD14O,1.117600X1.905000*%
%ADD15R,1.117600X1.905000*%
%ADD16C,1.346200*%
%ADD17C,1.107440*%
%ADD18R,1.422400X1.422400*%
%ADD19C,1.422400*%
%ADD20C,0.800000*%
%ADD21C,0.250000*%
G04 APERTURE END LIST*
D10*
X191770000Y-62230000D03*
D11*
X199390000Y-62230000D03*
D10*
X133350000Y-62230000D03*
D11*
X140970000Y-62230000D03*
D12*
X105410000Y-91440000D03*
X105410000Y-93980000D03*
X105410000Y-96520000D03*
X105410000Y-99060000D03*
X105410000Y-101600000D03*
D13*
X105410000Y-104140000D03*
X94615000Y-91440000D03*
D12*
X94615000Y-93980000D03*
X94615000Y-96520000D03*
X85090000Y-96520000D03*
X85090000Y-93980000D03*
D13*
X85090000Y-91440000D03*
D14*
X233045000Y-73660000D03*
X230505000Y-73660000D03*
D15*
X231775000Y-73660000D03*
D14*
X229235000Y-73660000D03*
X210185000Y-73660000D03*
X207645000Y-73660000D03*
D15*
X208915000Y-73660000D03*
D14*
X206375000Y-73660000D03*
X174625000Y-73660000D03*
X172085000Y-73660000D03*
D15*
X173355000Y-73660000D03*
D14*
X170815000Y-73660000D03*
X151765000Y-73660000D03*
X149225000Y-73660000D03*
D15*
X150495000Y-73660000D03*
D14*
X147955000Y-73660000D03*
X116205000Y-73660000D03*
X113665000Y-73660000D03*
D15*
X114935000Y-73660000D03*
D14*
X112395000Y-73660000D03*
X93345000Y-73660000D03*
X90805000Y-73660000D03*
D15*
X92075000Y-73660000D03*
D14*
X89535000Y-73660000D03*
D16*
X88564720Y-68181220D03*
X94315280Y-68181220D03*
X91440000Y-67472560D03*
X97584260Y-72915780D03*
X97226120Y-75854560D03*
X95544640Y-78292960D03*
X92920820Y-79669640D03*
X89959180Y-79669640D03*
X87335360Y-78292960D03*
X85653880Y-75854560D03*
X85295740Y-72915780D03*
X86347300Y-70144640D03*
X96532700Y-70144640D03*
X119532700Y-70144640D03*
X109347300Y-70144640D03*
X108295740Y-72915780D03*
X108653880Y-75854560D03*
X110335360Y-78292960D03*
X112959180Y-79669640D03*
X115920820Y-79669640D03*
X118544640Y-78292960D03*
X120226120Y-75854560D03*
X120584260Y-72915780D03*
X114440000Y-67472560D03*
X117315280Y-68181220D03*
X111564720Y-68181220D03*
X146764720Y-68181220D03*
X152515280Y-68181220D03*
X149640000Y-67472560D03*
X155784260Y-72915780D03*
X155426120Y-75854560D03*
X153744640Y-78292960D03*
X151120820Y-79669640D03*
X148159180Y-79669640D03*
X145535360Y-78292960D03*
X143853880Y-75854560D03*
X143495740Y-72915780D03*
X144547300Y-70144640D03*
X154732700Y-70144640D03*
X177732700Y-70144640D03*
X167547300Y-70144640D03*
X166495740Y-72915780D03*
X166853880Y-75854560D03*
X168535360Y-78292960D03*
X171159180Y-79669640D03*
X174120820Y-79669640D03*
X176744640Y-78292960D03*
X178426120Y-75854560D03*
X178784260Y-72915780D03*
X172640000Y-67472560D03*
X175515280Y-68181220D03*
X169764720Y-68181220D03*
X204964720Y-68181220D03*
X210715280Y-68181220D03*
X207840000Y-67472560D03*
X213984260Y-72915780D03*
X213626120Y-75854560D03*
X211944640Y-78292960D03*
X209320820Y-79669640D03*
X206359180Y-79669640D03*
X203735360Y-78292960D03*
X202053880Y-75854560D03*
X201695740Y-72915780D03*
X202747300Y-70144640D03*
X212932700Y-70144640D03*
X235932700Y-70144640D03*
X225747300Y-70144640D03*
X224695740Y-72915780D03*
X225053880Y-75854560D03*
X226735360Y-78292960D03*
X229359180Y-79669640D03*
X232320820Y-79669640D03*
X234944640Y-78292960D03*
X236626120Y-75854560D03*
X236984260Y-72915780D03*
X230840000Y-67472560D03*
X233715280Y-68181220D03*
X227964720Y-68181220D03*
D17*
X133627500Y-73660000D03*
X130452500Y-73660000D03*
X188652500Y-73660000D03*
X191827500Y-73660000D03*
D10*
X203835000Y-62230000D03*
D11*
X211455000Y-62230000D03*
D10*
X222885000Y-62230000D03*
D11*
X230505000Y-62230000D03*
X91440000Y-62230000D03*
D10*
X99060000Y-62230000D03*
X106680000Y-62230000D03*
D11*
X114300000Y-62230000D03*
D10*
X122555000Y-62230000D03*
D11*
X130175000Y-62230000D03*
D10*
X168910000Y-62230000D03*
D11*
X176530000Y-62230000D03*
X188595000Y-62230000D03*
D10*
X180975000Y-62230000D03*
D11*
X153670000Y-62230000D03*
D10*
X146050000Y-62230000D03*
D18*
X133350000Y-87630000D03*
D19*
X130810000Y-87630000D03*
X128270000Y-87630000D03*
X135890000Y-87630000D03*
X138430000Y-87630000D03*
X130810000Y-85090000D03*
X128270000Y-85090000D03*
X125730000Y-85090000D03*
X133350000Y-85090000D03*
X135890000Y-85090000D03*
X125730000Y-87630000D03*
X125730000Y-90170000D03*
X125730000Y-92710000D03*
X125730000Y-95250000D03*
X125730000Y-97790000D03*
X123190000Y-87630000D03*
X123190000Y-90170000D03*
X123190000Y-92710000D03*
X123190000Y-95250000D03*
X123190000Y-97790000D03*
X123190000Y-100330000D03*
X125730000Y-100330000D03*
X128270000Y-100330000D03*
X130810000Y-100330000D03*
X133350000Y-100330000D03*
X135890000Y-100330000D03*
X140970000Y-100330000D03*
X125730000Y-102870000D03*
X128270000Y-102870000D03*
X130810000Y-102870000D03*
X133350000Y-102870000D03*
X135890000Y-102870000D03*
X138430000Y-102870000D03*
X138430000Y-100330000D03*
X138430000Y-97790000D03*
X138430000Y-95250000D03*
X138430000Y-92710000D03*
X138430000Y-90170000D03*
X138430000Y-85090000D03*
X140970000Y-97790000D03*
X140970000Y-95250000D03*
X140970000Y-92710000D03*
X140970000Y-90170000D03*
X140970000Y-87630000D03*
X199390000Y-87630000D03*
X199390000Y-90170000D03*
X199390000Y-92710000D03*
X199390000Y-95250000D03*
X199390000Y-97790000D03*
X196850000Y-85090000D03*
X196850000Y-90170000D03*
X196850000Y-92710000D03*
X196850000Y-95250000D03*
X196850000Y-97790000D03*
X196850000Y-100330000D03*
X196850000Y-102870000D03*
X194310000Y-102870000D03*
X191770000Y-102870000D03*
X189230000Y-102870000D03*
X186690000Y-102870000D03*
X184150000Y-102870000D03*
X199390000Y-100330000D03*
X194310000Y-100330000D03*
X191770000Y-100330000D03*
X189230000Y-100330000D03*
X186690000Y-100330000D03*
X184150000Y-100330000D03*
X181610000Y-100330000D03*
X181610000Y-97790000D03*
X181610000Y-95250000D03*
X181610000Y-92710000D03*
X181610000Y-90170000D03*
X181610000Y-87630000D03*
X184150000Y-97790000D03*
X184150000Y-95250000D03*
X184150000Y-92710000D03*
X184150000Y-90170000D03*
X184150000Y-87630000D03*
X194310000Y-85090000D03*
X191770000Y-85090000D03*
X184150000Y-85090000D03*
X186690000Y-85090000D03*
X189230000Y-85090000D03*
X196850000Y-87630000D03*
X194310000Y-87630000D03*
X186690000Y-87630000D03*
X189230000Y-87630000D03*
D18*
X191770000Y-87630000D03*
D20*
X139604400Y-75759800D03*
X185420000Y-80661200D03*
X182107900Y-84530300D03*
X202510000Y-74048200D03*
D21*
X91440000Y-62230000D02*
X91440000Y-67472600D01*
X138430000Y-90170000D02*
X127380700Y-90170000D01*
X127380700Y-90170000D02*
X126344200Y-89133500D01*
X126344200Y-89133500D02*
X113802000Y-89133500D01*
X113802000Y-89133500D02*
X97584300Y-72915800D01*
X138430000Y-92710000D02*
X137393500Y-93746500D01*
X137393500Y-93746500D02*
X117778100Y-93746500D01*
X117778100Y-93746500D02*
X102324600Y-78293000D01*
X102324600Y-78293000D02*
X95544600Y-78293000D01*
X89959200Y-79669600D02*
X93847700Y-83558100D01*
X93847700Y-83558100D02*
X105112100Y-83558100D01*
X105112100Y-83558100D02*
X115750900Y-94196900D01*
X115750900Y-94196900D02*
X137376900Y-94196900D01*
X137376900Y-94196900D02*
X138430000Y-95250000D01*
X87335400Y-78293000D02*
X87335400Y-78468000D01*
X87335400Y-78468000D02*
X92875800Y-84008400D01*
X92875800Y-84008400D02*
X104925500Y-84008400D01*
X104925500Y-84008400D02*
X117203700Y-96286600D01*
X117203700Y-96286600D02*
X139933400Y-96286600D01*
X139933400Y-96286600D02*
X140970000Y-95250000D01*
X138430000Y-97790000D02*
X137393400Y-98826600D01*
X137393400Y-98826600D02*
X125287300Y-98826600D01*
X125287300Y-98826600D02*
X124460000Y-97999300D01*
X124460000Y-97999300D02*
X124460000Y-97532000D01*
X124460000Y-97532000D02*
X123665200Y-96737200D01*
X123665200Y-96737200D02*
X113198100Y-96737200D01*
X113198100Y-96737200D02*
X102458300Y-85997400D01*
X102458300Y-85997400D02*
X93579000Y-85997400D01*
X93579000Y-85997400D02*
X85653900Y-78072300D01*
X85653900Y-78072300D02*
X85653900Y-75854600D01*
X86347300Y-70144600D02*
X84276700Y-72215200D01*
X84276700Y-72215200D02*
X84276700Y-78070900D01*
X84276700Y-78070900D02*
X97227600Y-91021800D01*
X97227600Y-91021800D02*
X97227600Y-92591400D01*
X97227600Y-92591400D02*
X104966200Y-100330000D01*
X104966200Y-100330000D02*
X106979000Y-100330000D01*
X106979000Y-100330000D02*
X111480100Y-104831100D01*
X111480100Y-104831100D02*
X137938800Y-104831100D01*
X137938800Y-104831100D02*
X139491900Y-103278000D01*
X139491900Y-103278000D02*
X139491900Y-101391900D01*
X139491900Y-101391900D02*
X138430000Y-100330000D01*
X96532700Y-70144600D02*
X115071000Y-88682900D01*
X115071000Y-88682900D02*
X126530500Y-88682900D01*
X126530500Y-88682900D02*
X127431200Y-89583600D01*
X127431200Y-89583600D02*
X136888100Y-89583600D01*
X136888100Y-89583600D02*
X137338400Y-89133300D01*
X137338400Y-89133300D02*
X139466700Y-89133300D01*
X139466700Y-89133300D02*
X140970000Y-87630000D01*
X128270000Y-87630000D02*
X126783100Y-86143100D01*
X126783100Y-86143100D02*
X125302500Y-86143100D01*
X125302500Y-86143100D02*
X123803600Y-84644200D01*
X123803600Y-84644200D02*
X123803600Y-81812200D01*
X123803600Y-81812200D02*
X119177400Y-77186000D01*
X119177400Y-77186000D02*
X119177400Y-70499900D01*
X119177400Y-70499900D02*
X119532700Y-70144600D01*
X109347300Y-70144600D02*
X113939900Y-70144600D01*
X113939900Y-70144600D02*
X116902200Y-67182300D01*
X116902200Y-67182300D02*
X120522300Y-67182300D01*
X120522300Y-67182300D02*
X138430000Y-85090000D01*
X108295700Y-72915800D02*
X110275200Y-70936300D01*
X110275200Y-70936300D02*
X110275200Y-70936200D01*
X110275200Y-70936200D02*
X116210000Y-70936200D01*
X116210000Y-70936200D02*
X118472800Y-68673400D01*
X118472800Y-68673400D02*
X120968200Y-68673400D01*
X120968200Y-68673400D02*
X137386900Y-85092100D01*
X137386900Y-85092100D02*
X137386900Y-86586900D01*
X137386900Y-86586900D02*
X138430000Y-87630000D01*
X135890000Y-85090000D02*
X135890000Y-85008200D01*
X135890000Y-85008200D02*
X120005600Y-69123800D01*
X120005600Y-69123800D02*
X118659300Y-69123800D01*
X118659300Y-69123800D02*
X116030800Y-71752300D01*
X116030800Y-71752300D02*
X112600100Y-71752300D01*
X112600100Y-71752300D02*
X108653900Y-75698500D01*
X108653900Y-75698500D02*
X108653900Y-75854600D01*
X133350000Y-87630000D02*
X132313500Y-87630000D01*
X132313500Y-87630000D02*
X131277000Y-88666500D01*
X131277000Y-88666500D02*
X127827300Y-88666500D01*
X127827300Y-88666500D02*
X126964200Y-87803400D01*
X126964200Y-87803400D02*
X126964200Y-87382300D01*
X126964200Y-87382300D02*
X126175400Y-86593500D01*
X126175400Y-86593500D02*
X122844700Y-86593500D01*
X122844700Y-86593500D02*
X115920800Y-79669600D01*
X130810000Y-87630000D02*
X129699300Y-86519300D01*
X129699300Y-86519300D02*
X128204400Y-86519300D01*
X128204400Y-86519300D02*
X127079100Y-85394000D01*
X127079100Y-85394000D02*
X127079100Y-82707600D01*
X127079100Y-82707600D02*
X120226100Y-75854600D01*
X128270000Y-85090000D02*
X128270000Y-80601500D01*
X128270000Y-80601500D02*
X120584300Y-72915800D01*
X153670000Y-62230000D02*
X153670000Y-63355300D01*
X153670000Y-63355300D02*
X149640000Y-67385300D01*
X149640000Y-67385300D02*
X149640000Y-67472600D01*
X123190000Y-97790000D02*
X124676900Y-99276900D01*
X124676900Y-99276900D02*
X141008500Y-99276900D01*
X141008500Y-99276900D02*
X152649400Y-87636000D01*
X152649400Y-87636000D02*
X152649400Y-76990400D01*
X152649400Y-76990400D02*
X155784300Y-73855500D01*
X155784300Y-73855500D02*
X155784300Y-72915800D01*
X125730000Y-92710000D02*
X126766600Y-91673400D01*
X126766600Y-91673400D02*
X140973800Y-91673400D01*
X140973800Y-91673400D02*
X151120800Y-81526400D01*
X151120800Y-81526400D02*
X151120800Y-79669600D01*
X123190000Y-92710000D02*
X124685100Y-91214900D01*
X124685100Y-91214900D02*
X138851300Y-91214900D01*
X138851300Y-91214900D02*
X139700000Y-90366200D01*
X139700000Y-90366200D02*
X139700000Y-89951600D01*
X139700000Y-89951600D02*
X140751600Y-88900000D01*
X140751600Y-88900000D02*
X141220700Y-88900000D01*
X141220700Y-88900000D02*
X148159200Y-81961500D01*
X148159200Y-81961500D02*
X148159200Y-79669600D01*
X125730000Y-87630000D02*
X126114500Y-87630000D01*
X126114500Y-87630000D02*
X127617700Y-89133200D01*
X127617700Y-89133200D02*
X136701600Y-89133200D01*
X136701600Y-89133200D02*
X137151900Y-88682900D01*
X137151900Y-88682900D02*
X138843100Y-88682900D01*
X138843100Y-88682900D02*
X139540700Y-87985300D01*
X139540700Y-87985300D02*
X139540700Y-76870800D01*
X139540700Y-76870800D02*
X143495700Y-72915800D01*
X144547300Y-70144600D02*
X139604400Y-75087500D01*
X139604400Y-75087500D02*
X139604400Y-75759800D01*
X154732700Y-70144600D02*
X154732700Y-73701800D01*
X154732700Y-73701800D02*
X152199000Y-76235500D01*
X152199000Y-76235500D02*
X152199000Y-85494000D01*
X152199000Y-85494000D02*
X140939600Y-96753400D01*
X140939600Y-96753400D02*
X126766600Y-96753400D01*
X126766600Y-96753400D02*
X125730000Y-97790000D01*
X177732700Y-70144600D02*
X185420000Y-77831900D01*
X185420000Y-77831900D02*
X185420000Y-80661200D01*
X167547300Y-70144600D02*
X167886800Y-70484100D01*
X167886800Y-70484100D02*
X167886800Y-77422900D01*
X167886800Y-77422900D02*
X167527800Y-77781900D01*
X167527800Y-77781900D02*
X167527800Y-88395400D01*
X167527800Y-88395400D02*
X183492600Y-104360200D01*
X183492600Y-104360200D02*
X191782100Y-104360200D01*
X191782100Y-104360200D02*
X193040000Y-103102300D01*
X193040000Y-103102300D02*
X193040000Y-102619500D01*
X193040000Y-102619500D02*
X193826100Y-101833400D01*
X193826100Y-101833400D02*
X195346600Y-101833400D01*
X195346600Y-101833400D02*
X196850000Y-100330000D01*
X166495700Y-72915800D02*
X165828700Y-73582800D01*
X165828700Y-73582800D02*
X165828700Y-87333200D01*
X165828700Y-87333200D02*
X183306000Y-104810500D01*
X183306000Y-104810500D02*
X196447700Y-104810500D01*
X196447700Y-104810500D02*
X198353500Y-102904700D01*
X198353500Y-102904700D02*
X198353500Y-98826500D01*
X198353500Y-98826500D02*
X199390000Y-97790000D01*
X196850000Y-95250000D02*
X195783200Y-96316800D01*
X195783200Y-96316800D02*
X181183000Y-96316800D01*
X181183000Y-96316800D02*
X171159200Y-86293000D01*
X171159200Y-86293000D02*
X171159200Y-79669600D01*
X199390000Y-92710000D02*
X198336900Y-93763100D01*
X198336900Y-93763100D02*
X183717400Y-93763100D01*
X183717400Y-93763100D02*
X182646600Y-92692300D01*
X182646600Y-92692300D02*
X182646600Y-92222600D01*
X182646600Y-92222600D02*
X181633300Y-91209300D01*
X181633300Y-91209300D02*
X181160200Y-91209300D01*
X181160200Y-91209300D02*
X174120800Y-84169900D01*
X174120800Y-84169900D02*
X174120800Y-79669600D01*
X178784300Y-72915800D02*
X182107900Y-76239400D01*
X182107900Y-76239400D02*
X182107900Y-84530300D01*
X176530000Y-62230000D02*
X176530000Y-63355300D01*
X172640000Y-67472600D02*
X172640000Y-67245300D01*
X172640000Y-67245300D02*
X176530000Y-63355300D01*
X211455000Y-62230000D02*
X211455000Y-63355300D01*
X207840000Y-67472600D02*
X207840000Y-66970300D01*
X207840000Y-66970300D02*
X211455000Y-63355300D01*
X186690000Y-87630000D02*
X187960000Y-86360000D01*
X187960000Y-86360000D02*
X187960000Y-83515000D01*
X187960000Y-83515000D02*
X202354500Y-69120500D01*
X202354500Y-69120500D02*
X203135300Y-69120500D01*
X203135300Y-69120500D02*
X205608300Y-71593500D01*
X205608300Y-71593500D02*
X212662000Y-71593500D01*
X212662000Y-71593500D02*
X213984300Y-72915800D01*
X191770000Y-87630000D02*
X192806500Y-87630000D01*
X192806500Y-87630000D02*
X193859600Y-88683100D01*
X193859600Y-88683100D02*
X194742600Y-88683100D01*
X194742600Y-88683100D02*
X195580000Y-87845700D01*
X195580000Y-87845700D02*
X195580000Y-87376000D01*
X195580000Y-87376000D02*
X196816900Y-86139100D01*
X196816900Y-86139100D02*
X199889700Y-86139100D01*
X199889700Y-86139100D02*
X206359200Y-79669600D01*
X191770000Y-85090000D02*
X198567000Y-78293000D01*
X198567000Y-78293000D02*
X203735400Y-78293000D01*
X194310000Y-87630000D02*
X192823000Y-86143000D01*
X192823000Y-86143000D02*
X191331400Y-86143000D01*
X191331400Y-86143000D02*
X190723900Y-85535500D01*
X190723900Y-85535500D02*
X190723900Y-84664800D01*
X190723900Y-84664800D02*
X199534100Y-75854600D01*
X199534100Y-75854600D02*
X202053900Y-75854600D01*
X201695700Y-72915800D02*
X201695700Y-74313100D01*
X201695700Y-74313100D02*
X202185300Y-74802700D01*
X202185300Y-74802700D02*
X202428400Y-74802700D01*
X202428400Y-74802700D02*
X204747300Y-77121600D01*
X204747300Y-77121600D02*
X204747300Y-78697700D01*
X204747300Y-78697700D02*
X202690200Y-80754800D01*
X202690200Y-80754800D02*
X198645200Y-80754800D01*
X198645200Y-80754800D02*
X194310000Y-85090000D01*
X196850000Y-87630000D02*
X197890500Y-86589500D01*
X197890500Y-86589500D02*
X200854200Y-86589500D01*
X200854200Y-86589500D02*
X207364300Y-80079400D01*
X207364300Y-80079400D02*
X207364300Y-77876600D01*
X207364300Y-77876600D02*
X202747300Y-73259600D01*
X202747300Y-73259600D02*
X202747300Y-70144600D01*
X212932700Y-70144600D02*
X205435000Y-70144600D01*
X205435000Y-70144600D02*
X203510200Y-68219800D01*
X203510200Y-68219800D02*
X201020200Y-68219800D01*
X201020200Y-68219800D02*
X184150000Y-85090000D01*
X181610000Y-87630000D02*
X181610000Y-86088100D01*
X181610000Y-86088100D02*
X200523800Y-67174300D01*
X200523800Y-67174300D02*
X205429300Y-67174300D01*
X205429300Y-67174300D02*
X207445900Y-69190900D01*
X207445900Y-69190900D02*
X211860600Y-69190900D01*
X211860600Y-69190900D02*
X211910700Y-69140800D01*
X211910700Y-69140800D02*
X224743500Y-69140800D01*
X224743500Y-69140800D02*
X225747300Y-70144600D01*
X224695700Y-72915800D02*
X222923000Y-71143100D01*
X222923000Y-71143100D02*
X205796600Y-71143100D01*
X205796600Y-71143100D02*
X203323600Y-68670100D01*
X203323600Y-68670100D02*
X201638000Y-68670100D01*
X201638000Y-68670100D02*
X185260700Y-85047400D01*
X185260700Y-85047400D02*
X185260700Y-86519300D01*
X185260700Y-86519300D02*
X184150000Y-87630000D01*
X181610000Y-90170000D02*
X182646500Y-89133500D01*
X182646500Y-89133500D02*
X211775000Y-89133500D01*
X211775000Y-89133500D02*
X225053900Y-75854600D01*
X184150000Y-90170000D02*
X185191700Y-91211700D01*
X185191700Y-91211700D02*
X213816700Y-91211700D01*
X213816700Y-91211700D02*
X226735400Y-78293000D01*
X184150000Y-92710000D02*
X185186500Y-91673500D01*
X185186500Y-91673500D02*
X220316900Y-91673500D01*
X220316900Y-91673500D02*
X232320800Y-79669600D01*
X181610000Y-95250000D02*
X182646600Y-94213400D01*
X182646600Y-94213400D02*
X219201200Y-94213400D01*
X219201200Y-94213400D02*
X234944600Y-78470000D01*
X234944600Y-78470000D02*
X234944600Y-78293000D01*
X181610000Y-97790000D02*
X182651700Y-98831700D01*
X182651700Y-98831700D02*
X193905200Y-98831700D01*
X193905200Y-98831700D02*
X196216900Y-96520000D01*
X196216900Y-96520000D02*
X218154900Y-96520000D01*
X218154900Y-96520000D02*
X237641700Y-77033200D01*
X237641700Y-77033200D02*
X237641700Y-73573200D01*
X237641700Y-73573200D02*
X236984300Y-72915800D01*
X230505000Y-62230000D02*
X230505000Y-63355300D01*
X230840000Y-67472600D02*
X230840000Y-63690300D01*
X230840000Y-63690300D02*
X230505000Y-63355300D01*
X133627500Y-73660000D02*
X133350000Y-73382500D01*
X133350000Y-73382500D02*
X133350000Y-62230000D01*
X130452500Y-73660000D02*
X130175000Y-73382500D01*
X130175000Y-73382500D02*
X130175000Y-62230000D01*
X188595000Y-62230000D02*
X188595000Y-63355300D01*
X188595000Y-63355300D02*
X188652500Y-63412800D01*
X188652500Y-63412800D02*
X188652500Y-73660000D01*
X202510000Y-74048200D02*
X205209100Y-76747300D01*
X205209100Y-76747300D02*
X205209100Y-78880400D01*
X205209100Y-78880400D02*
X198999500Y-85090000D01*
X198999500Y-85090000D02*
X196850000Y-85090000D01*
X191770000Y-62230000D02*
X191770000Y-73602500D01*
X191770000Y-73602500D02*
X191827500Y-73660000D01*
X90805000Y-72382200D02*
X87528500Y-69105700D01*
X87528500Y-69105700D02*
X85884300Y-69105700D01*
X85884300Y-69105700D02*
X83806000Y-71184000D01*
X83806000Y-71184000D02*
X83806000Y-83900700D01*
X83806000Y-83900700D02*
X91345300Y-91440000D01*
X90805000Y-73660000D02*
X90805000Y-72382200D01*
X91345300Y-91440000D02*
X86265300Y-96520000D01*
X94615000Y-91440000D02*
X91345300Y-91440000D01*
X105410000Y-91440000D02*
X106585300Y-91440000D01*
X85090000Y-96520000D02*
X86265300Y-96520000D01*
X133350000Y-100330000D02*
X130810000Y-102870000D01*
X106585300Y-91440000D02*
X116745300Y-101600000D01*
X116745300Y-101600000D02*
X129540000Y-101600000D01*
X129540000Y-101600000D02*
X130810000Y-102870000D01*
X189230000Y-102870000D02*
X187960000Y-101600000D01*
X187960000Y-101600000D02*
X183928700Y-101600000D01*
X183928700Y-101600000D02*
X182880000Y-100551300D01*
X182880000Y-100551300D02*
X182880000Y-100079500D01*
X182880000Y-100079500D02*
X182093900Y-99293400D01*
X182093900Y-99293400D02*
X181604900Y-99293400D01*
X181604900Y-99293400D02*
X170160100Y-87848600D01*
X170160100Y-87848600D02*
X170160100Y-77510100D01*
X170160100Y-77510100D02*
X172085000Y-75585200D01*
X172085000Y-75585200D02*
X172085000Y-73660000D01*
X191770000Y-100330000D02*
X189230000Y-102870000D01*
X146050000Y-62230000D02*
X144924600Y-61104600D01*
X144924600Y-61104600D02*
X123680400Y-61104600D01*
X123680400Y-61104600D02*
X122555000Y-62230000D01*
X180975000Y-62230000D02*
X182124500Y-61080500D01*
X182124500Y-61080500D02*
X202685500Y-61080500D01*
X202685500Y-61080500D02*
X203835000Y-62230000D01*
X180975000Y-62230000D02*
X179829500Y-61084500D01*
X179829500Y-61084500D02*
X170055500Y-61084500D01*
X170055500Y-61084500D02*
X168910000Y-62230000D01*
X106680000Y-62230000D02*
X107805400Y-61104600D01*
X107805400Y-61104600D02*
X121429600Y-61104600D01*
X121429600Y-61104600D02*
X122555000Y-62230000D01*
X173355000Y-73660000D02*
X173355000Y-72382200D01*
X191770000Y-102870000D02*
X190730100Y-103909900D01*
X190730100Y-103909900D02*
X183679200Y-103909900D01*
X183679200Y-103909900D02*
X169703300Y-89934000D01*
X169703300Y-89934000D02*
X169703300Y-73121100D01*
X169703300Y-73121100D02*
X170442200Y-72382200D01*
X170442200Y-72382200D02*
X173355000Y-72382200D01*
X105410000Y-104140000D02*
X105410000Y-102964700D01*
X94615000Y-93980000D02*
X95790300Y-93980000D01*
X95790300Y-93980000D02*
X104775000Y-102964700D01*
X104775000Y-102964700D02*
X105410000Y-102964700D01*
X105410000Y-96520000D02*
X106585300Y-96520000D01*
X135890000Y-102870000D02*
X134379300Y-104380700D01*
X134379300Y-104380700D02*
X114446000Y-104380700D01*
X114446000Y-104380700D02*
X106585300Y-96520000D01*
X105410000Y-93980000D02*
X106585300Y-93980000D01*
X138430000Y-102870000D02*
X137373200Y-101813200D01*
X137373200Y-101813200D02*
X132930900Y-101813200D01*
X132930900Y-101813200D02*
X132080000Y-102664100D01*
X132080000Y-102664100D02*
X132080000Y-103130100D01*
X132080000Y-103130100D02*
X131288800Y-103921300D01*
X131288800Y-103921300D02*
X116526600Y-103921300D01*
X116526600Y-103921300D02*
X106585300Y-93980000D01*
M02*
