G04 #@! TF.GenerationSoftware,KiCad,Pcbnew,(5.1.4-0-10_14)*
G04 #@! TF.CreationDate,2019-11-07T09:29:39+01:00*
G04 #@! TF.ProjectId,luminixie,6c756d69-6e69-4786-9965-2e6b69636164,rev?*
G04 #@! TF.SameCoordinates,Original*
G04 #@! TF.FileFunction,Paste,Top*
G04 #@! TF.FilePolarity,Positive*
%FSLAX46Y46*%
G04 Gerber Fmt 4.6, Leading zero omitted, Abs format (unit mm)*
G04 Created by KiCad (PCBNEW (5.1.4-0-10_14)) date 2019-11-07 09:29:39*
%MOMM*%
%LPD*%
G04 APERTURE LIST*
%ADD10C,1.346200*%
%ADD11C,1.107440*%
G04 APERTURE END LIST*
D10*
X88564720Y-68181220D03*
X94315280Y-68181220D03*
X91440000Y-67472560D03*
X97584260Y-72915780D03*
X97226120Y-75854560D03*
X95544640Y-78292960D03*
X92920820Y-79669640D03*
X89959180Y-79669640D03*
X87335360Y-78292960D03*
X85653880Y-75854560D03*
X85295740Y-72915780D03*
X86347300Y-70144640D03*
X96532700Y-70144640D03*
X119532700Y-70144640D03*
X109347300Y-70144640D03*
X108295740Y-72915780D03*
X108653880Y-75854560D03*
X110335360Y-78292960D03*
X112959180Y-79669640D03*
X115920820Y-79669640D03*
X118544640Y-78292960D03*
X120226120Y-75854560D03*
X120584260Y-72915780D03*
X114440000Y-67472560D03*
X117315280Y-68181220D03*
X111564720Y-68181220D03*
X146764720Y-68181220D03*
X152515280Y-68181220D03*
X149640000Y-67472560D03*
X155784260Y-72915780D03*
X155426120Y-75854560D03*
X153744640Y-78292960D03*
X151120820Y-79669640D03*
X148159180Y-79669640D03*
X145535360Y-78292960D03*
X143853880Y-75854560D03*
X143495740Y-72915780D03*
X144547300Y-70144640D03*
X154732700Y-70144640D03*
X177732700Y-70144640D03*
X167547300Y-70144640D03*
X166495740Y-72915780D03*
X166853880Y-75854560D03*
X168535360Y-78292960D03*
X171159180Y-79669640D03*
X174120820Y-79669640D03*
X176744640Y-78292960D03*
X178426120Y-75854560D03*
X178784260Y-72915780D03*
X172640000Y-67472560D03*
X175515280Y-68181220D03*
X169764720Y-68181220D03*
X204964720Y-68181220D03*
X210715280Y-68181220D03*
X207840000Y-67472560D03*
X213984260Y-72915780D03*
X213626120Y-75854560D03*
X211944640Y-78292960D03*
X209320820Y-79669640D03*
X206359180Y-79669640D03*
X203735360Y-78292960D03*
X202053880Y-75854560D03*
X201695740Y-72915780D03*
X202747300Y-70144640D03*
X212932700Y-70144640D03*
X235932700Y-70144640D03*
X225747300Y-70144640D03*
X224695740Y-72915780D03*
X225053880Y-75854560D03*
X226735360Y-78292960D03*
X229359180Y-79669640D03*
X232320820Y-79669640D03*
X234944640Y-78292960D03*
X236626120Y-75854560D03*
X236984260Y-72915780D03*
X230840000Y-67472560D03*
X233715280Y-68181220D03*
X227964720Y-68181220D03*
D11*
X133627500Y-73660000D03*
X130452500Y-73660000D03*
X188652500Y-73660000D03*
X191827500Y-73660000D03*
M02*
