M48
; DRILL file {KiCad (5.1.4-0-10_14)} date 2019 November 07, Thursday 09:29:33
; FORMAT={-:-/ absolute / inch / decimal}
; #@! TF.CreationDate,2019-11-07T09:29:33+01:00
; #@! TF.GenerationSoftware,Kicad,Pcbnew,(5.1.4-0-10_14)
; #@! TF.FileFunction,Plated,1,2,PTH
FMAT,2
INCH
T1C0.0157
T2C0.0236
T3C0.0300
T4C0.0315
T5C0.0330
T6C0.0394
%
G90
G05
T1
X5.4962Y-2.9827
X7.1696Y-3.328
X7.3Y-3.1756
X7.9728Y-2.9153
T2
X7.4273Y-2.9
X7.5523Y-2.9
X5.1359Y-2.9
X5.2609Y-2.9
T3
X3.525Y-2.9
X3.575Y-2.9
X3.625Y-2.9
X3.675Y-2.9
X9.025Y-2.9
X9.075Y-2.9
X9.125Y-2.9
X9.175Y-2.9
X5.975Y-2.9
X4.425Y-2.9
X4.525Y-2.9
X5.825Y-2.9
X5.875Y-2.9
X5.925Y-2.9
X4.475Y-2.9
X4.575Y-2.9
X8.125Y-2.9
X8.175Y-2.9
X8.225Y-2.9
X8.275Y-2.9
X6.725Y-2.9
X6.775Y-2.9
X6.825Y-2.9
X6.875Y-2.9
T4
X3.6Y-2.45
X3.9Y-2.45
X4.825Y-2.45
X5.125Y-2.45
X7.125Y-2.45
X7.425Y-2.45
X4.85Y-3.45
X4.85Y-3.55
X4.85Y-3.65
X4.85Y-3.75
X4.85Y-3.85
X4.85Y-3.95
X4.95Y-3.35
X4.95Y-3.45
X4.95Y-3.55
X4.95Y-3.65
X4.95Y-3.75
X4.95Y-3.85
X4.95Y-3.95
X4.95Y-4.05
X5.05Y-3.35
X5.05Y-3.45
X5.05Y-3.95
X5.05Y-4.05
X5.15Y-3.35
X5.15Y-3.45
X5.15Y-3.95
X5.15Y-4.05
X5.25Y-3.35
X5.25Y-3.45
X5.25Y-3.95
X5.25Y-4.05
X5.35Y-3.35
X5.35Y-3.45
X5.35Y-3.95
X5.35Y-4.05
X5.45Y-3.35
X5.45Y-3.45
X5.45Y-3.55
X5.45Y-3.65
X5.45Y-3.75
X5.45Y-3.85
X5.45Y-3.95
X5.45Y-4.05
X5.55Y-3.45
X5.55Y-3.55
X5.55Y-3.65
X5.55Y-3.75
X5.55Y-3.85
X5.55Y-3.95
X7.55Y-2.45
X7.85Y-2.45
X7.15Y-3.45
X7.15Y-3.55
X7.15Y-3.65
X7.15Y-3.75
X7.15Y-3.85
X7.15Y-3.95
X7.25Y-3.35
X7.25Y-3.45
X7.25Y-3.55
X7.25Y-3.65
X7.25Y-3.75
X7.25Y-3.85
X7.25Y-3.95
X7.25Y-4.05
X7.35Y-3.35
X7.35Y-3.45
X7.35Y-3.95
X7.35Y-4.05
X7.45Y-3.35
X7.45Y-3.45
X7.45Y-3.95
X7.45Y-4.05
X7.55Y-3.35
X7.55Y-3.45
X7.55Y-3.95
X7.55Y-4.05
X7.65Y-3.35
X7.65Y-3.45
X7.65Y-3.95
X7.65Y-4.05
X7.75Y-3.35
X7.75Y-3.45
X7.75Y-3.75
X7.75Y-3.85
X7.75Y-3.95
X7.75Y-4.05
X7.85Y-3.45
X7.85Y-3.55
X7.85Y-3.65
X7.85Y-3.75
X7.85Y-3.85
X7.85Y-3.95
X8.025Y-2.45
X8.325Y-2.45
X7.75Y-3.55
X7.75Y-3.65
X8.775Y-2.45
X9.075Y-2.45
X4.2Y-2.45
X4.5Y-2.45
X6.65Y-2.45
X6.95Y-2.45
X5.75Y-2.45
X6.05Y-2.45
X5.25Y-2.45
X5.55Y-2.45
T5
X5.6494Y-2.8707
X5.6635Y-2.9864
X5.6908Y-2.7616
X5.7297Y-3.0824
X5.7781Y-2.6843
X5.833Y-3.1366
X5.8913Y-2.6564
X5.9496Y-3.1366
X6.0045Y-2.6843
X6.0529Y-3.0824
X6.0918Y-2.7616
X6.1191Y-2.9864
X6.1332Y-2.8707
X6.555Y-2.8707
X6.5691Y-2.9864
X6.5964Y-2.7616
X6.6353Y-3.0824
X6.6837Y-2.6843
X6.7386Y-3.1366
X6.7969Y-2.6564
X6.8552Y-3.1366
X6.9101Y-2.6843
X6.9585Y-3.0824
X6.9974Y-2.7616
X7.0247Y-2.9864
X7.0388Y-2.8707
X7.9408Y-2.8707
X7.9549Y-2.9864
X7.9822Y-2.7616
X8.0211Y-3.0824
X8.0695Y-2.6843
X8.1244Y-3.1366
X8.1827Y-2.6564
X8.241Y-3.1366
X8.2959Y-2.6843
X8.3443Y-3.0824
X8.3832Y-2.7616
X8.4105Y-2.9864
X8.4246Y-2.8707
X4.2636Y-2.8707
X4.2777Y-2.9864
X4.305Y-2.7616
X4.3439Y-3.0824
X4.3923Y-2.6843
X8.8877Y-2.7616
X9.1465Y-3.1366
X9.2887Y-2.7616
X4.4472Y-3.1366
X4.5055Y-2.6564
X4.5638Y-3.1366
X4.6187Y-2.6843
X4.6671Y-3.0824
X4.706Y-2.7616
X4.7333Y-2.9864
X4.7474Y-2.8707
X8.8463Y-2.8707
X8.8604Y-2.9864
X8.9266Y-3.0824
X8.975Y-2.6843
X9.0299Y-3.1366
X9.0882Y-2.6564
X9.2014Y-2.6843
X9.2498Y-3.0824
X9.316Y-2.9864
X9.3301Y-2.8707
X3.3581Y-2.8707
X3.3722Y-2.9864
X3.3995Y-2.7616
X3.4384Y-3.0824
X3.4868Y-2.6843
X3.5417Y-3.1366
X3.6Y-2.6564
X3.6583Y-3.1366
X3.7132Y-2.6843
X3.7616Y-3.0824
X3.8005Y-2.7616
X3.8278Y-2.9864
X3.8419Y-2.8707
T6
X3.725Y-3.6
X3.725Y-3.7
X3.725Y-3.8
X3.35Y-3.6
X3.35Y-3.7
X3.35Y-3.8
X4.15Y-3.6
X4.15Y-3.7
X4.15Y-3.8
X4.15Y-3.9
X4.15Y-4.0
X4.15Y-4.1
T0
M30
